<svg width="60" height="60" viewBox="0 0 60 60" fill="none" xmlns="http://www.w3.org/2000/svg">
<path d="M30.45 7.32007C32.249 7.32007 33.6625 9.10389 33.6625 10.5054C33.6625 12.0344 32.506 13.1812 31.0925 13.6908C31.8635 14.7102 33.6625 15.4747 35.59 16.6214C39.9589 19.0423 43.5569 21.718 43.5569 26.305C43.5569 30.3823 42.1434 32.0387 40.6014 33.4403C39.9589 34.0774 40.3444 38.0273 40.3444 41.0852C40.3444 42.7416 37.1319 43.6335 33.534 44.0158C33.9195 44.7803 34.6905 45.4174 36.2325 45.4174C38.0314 45.4174 41.2439 45.2899 44.4564 45.2899C49.8533 45.2899 52.6803 48.2205 52.6803 48.2205L49.7248 52.6801C49.7248 52.6801 46.3838 50.0043 38.2884 50.0043C33.791 50.0043 30.5785 47.9657 30.0645 46.3093C29.679 47.9657 27.1091 50.0043 21.9691 50.0043C14.6447 50.0043 10.2757 52.6801 10.2757 52.6801L7.32031 48.2205C7.32031 48.2205 10.1472 45.2899 15.1587 45.2899C18.8851 45.2899 21.9691 45.4174 23.8966 45.4174C25.4386 45.4174 26.2096 44.6529 26.5951 44.0158C22.8686 43.6335 19.7846 42.7416 19.7846 41.0852C19.7846 38.5369 20.1701 34.3322 19.3991 33.5677C18.2426 32.421 16.4436 30.7646 16.4436 26.4324C16.4436 20.6987 21.7121 18.2778 25.0531 16.2392C26.4665 15.4747 28.0085 14.7102 28.7795 13.8183C27.4945 13.3086 26.4666 12.1619 26.4666 10.8877C26.7236 9.23131 28.5225 7.32007 30.45 7.32007Z" fill="#080802"/>
<path d="M30.3628 6.23999C32.5423 6.23999 34.5764 8.27448 34.5764 10.1637C34.5764 11.6169 33.5593 12.9248 32.2517 13.6514C32.6876 14.378 34.1405 15.2499 35.4482 15.9765C39.3712 18.1563 44.0206 20.6268 44.0206 26.585C44.0206 31.2352 41.9865 32.6884 40.9694 33.851C40.3883 34.5776 40.6788 39.0826 40.6788 41.2624C40.6788 42.7156 38.0635 43.8782 34.2858 44.4594C34.867 44.8954 35.5935 44.8954 36.4653 44.8954C38.3541 44.8954 40.2429 43.5875 44.0206 43.7328C49.9778 43.7328 53.029 46.7846 54.0461 47.6565L49.9778 53.76C48.8154 53.0334 44.7471 50.7083 39.3712 50.7083C34.5764 50.7083 31.0893 49.9816 29.9269 48.2378C28.7646 49.9816 25.2775 50.7083 20.4827 50.7083C15.2521 50.7083 11.1838 53.0334 10.0214 53.76L5.95312 47.6565C6.9702 46.7846 10.0214 43.7328 15.9785 43.7328C19.7562 43.7328 21.6451 44.8954 23.3886 44.8954C24.2604 44.8954 24.9869 44.8954 25.5681 44.4594C21.4998 44.0235 19.3203 42.7156 19.3203 41.2624C19.3203 39.0826 19.7562 34.5776 19.0297 33.851C17.8674 32.6884 15.9785 31.2352 15.9785 26.585C15.9785 20.6268 20.628 18.3016 24.551 15.9765C25.8587 15.2499 27.6022 14.2327 27.7475 13.6514C26.5851 12.9248 25.8586 11.7622 25.8586 10.4543C25.7134 8.27448 28.0381 6.23999 30.3628 6.23999ZM38.9353 48.2378C43.8753 48.2378 47.3624 49.691 49.106 50.4176L50.7043 47.8018C49.5419 46.9299 47.0719 45.622 43.8754 45.622C40.5335 45.622 38.3541 46.3486 36.4653 46.3486C33.9952 46.3486 32.5423 45.622 31.8158 44.4594C31.0893 44.4594 30.5081 44.4594 29.7816 44.4594C29.0552 44.4594 28.474 44.4594 27.8928 44.4594C27.1663 45.622 25.5681 46.3486 22.9527 46.3486C21.2092 46.3486 19.175 45.622 15.6879 45.622C12.3461 45.622 10.0214 46.9299 8.71374 47.8018L10.4573 50.4176C12.0556 49.5457 15.5426 48.2378 20.4827 48.2378C24.6963 48.2378 28.1834 47.8018 29.491 46.058H29.9269C31.3799 47.9472 34.4311 48.2378 38.9353 48.2378ZM20.9186 34.7229C22.9527 33.5604 26.2945 32.9791 29.7816 32.9791C33.414 32.9791 36.4653 33.7057 38.6447 34.7229C38.6447 33.851 38.9353 32.9791 39.0806 32.6884C39.9524 31.5259 41.5506 30.218 41.5506 26.585C41.5506 21.644 36.7559 19.1736 33.9952 17.4297C32.5423 16.4125 29.9269 14.9593 29.7816 14.378C29.6363 14.9593 27.1663 16.4125 25.5681 17.4297C22.8074 19.1736 18.0127 21.4987 18.0127 26.585C18.0127 30.218 19.6109 31.6712 20.4827 32.6884C20.7733 32.9791 20.9186 33.7057 20.9186 34.7229ZM21.0639 36.6121C21.0639 37.3387 21.0639 38.2106 21.0639 38.9372C22.5168 37.92 25.7134 37.1934 29.7816 37.1934C33.8499 37.1934 36.9011 37.92 38.4994 38.7919C38.4994 38.0653 38.4994 37.3387 38.4994 36.6121C36.0294 35.4495 33.2687 35.1589 29.7816 35.1589C26.1492 35.1589 23.3886 35.5949 21.0639 36.6121ZM29.9269 42.8609C32.2517 42.8609 38.6447 42.5703 38.6447 41.1171C38.6447 39.9545 34.1405 39.3732 29.9269 39.3732C26.0039 39.3732 21.2092 40.0998 21.2092 41.1171C21.0639 42.5703 26.8757 42.8609 29.9269 42.8609ZM28.474 26.0037H24.9869V23.3879H28.474V20.0455H31.2346V23.3879H34.7217V26.0037H31.2346V29.4914H28.474V26.0037ZM29.9269 12.1982C30.944 12.1982 32.1064 11.3262 32.1064 10.1637C32.1064 9.43705 31.3799 8.27448 30.3628 8.27448C29.2005 8.27448 28.1834 9.43705 28.1834 10.4543C28.1834 11.1809 29.0552 12.1982 29.9269 12.1982Z" fill="white"/>
</svg>
