<svg width="60" height="60" viewBox="0 0 60 60" fill="none" xmlns="http://www.w3.org/2000/svg">
<path fill-rule="evenodd" clip-rule="evenodd" d="M22.1308 52.1401H50.828C51.1365 50.7066 51.5994 47.9988 51.5994 44.1761C51.5994 27.2923 41.4166 14.2313 29.9994 12.4792L29.228 12.3199L29.0737 11.5235C28.6108 9.77148 27.3766 8.33795 26.7594 7.86011C25.988 8.49724 24.7537 9.77148 24.4451 12.4792V13.2756C23.0566 13.7535 21.8223 14.5499 20.8965 15.3463L20.588 15.1288C21.0508 14.3324 22.6708 13.5787 22.9794 13.2601C22.8251 12.623 20.4337 10.4086 19.6623 9.93076C18.428 9.13436 17.348 8.8158 16.5765 8.8158V11.205C16.5765 13.2756 17.0394 14.7092 17.348 15.9834C15.8051 17.0984 14.8794 19.169 14.5708 20.1247C13.6451 22.8325 13.7994 24.266 12.8737 25.8588C10.4051 30.0001 8.39941 32.7079 8.39941 34.6192C8.39941 37.6456 8.86226 39.8755 11.1765 39.8755C11.7937 39.8755 12.7194 39.8755 13.4908 39.5569C13.4908 40.3533 14.2623 40.9904 14.8794 40.9904C16.8851 40.9904 17.1937 36.6899 19.508 35.2564C24.4451 31.7522 31.2337 31.4336 31.2337 23.151H31.6194C31.6194 27.2923 30.848 28.788 29.4594 30.5401C29.9223 38.3448 24.908 41.1653 22.1308 46.7401C21.0508 48.6515 22.1308 51.3437 22.1308 52.1401Z" fill="#080802"/>
<path d="M52.1043 52.6801H18.9843C18.8403 50.6315 18.8403 48.1441 20.5683 44.925C22.7283 40.8279 27.6243 38.6331 27.9123 32.7802C26.1843 33.9508 24.3123 34.6824 22.5843 35.7066C19.5603 37.4625 19.5603 41.9985 15.6723 42.4375C14.2323 42.5838 13.3683 41.9985 12.9363 41.2669C12.6483 41.2669 12.5043 41.2669 12.2163 41.2669C9.19231 41.2669 7.32031 38.9257 7.32031 34.0971C7.32031 32.0486 9.3363 29.2684 12.0723 24.8788C12.9363 23.5619 12.5043 22.245 13.5123 19.9038C13.9443 18.7332 14.8083 17.709 15.9603 16.3921C15.8163 15.6604 15.5283 14.6362 15.5283 13.173C15.5283 11.5634 15.5283 9.80756 16.2483 8.19801C16.2483 8.19801 19.1283 8.05169 21.4323 9.95388C22.1523 10.5392 22.7283 11.1244 23.1603 11.5634C24.3123 9.22227 26.3283 7.61272 27.1923 7.32007C28.0563 7.90536 30.2163 9.80756 31.0803 12.4413C42.7443 14.6362 52.6803 27.3662 52.6803 43.7544C52.6803 48.7293 52.3923 51.6558 52.1043 52.6801ZM22.2963 50.3389H49.0803C49.3683 49.022 49.8003 46.5345 49.8003 43.0228C49.8003 27.5126 40.2963 15.5141 29.6403 13.9046L28.9203 13.7582L28.7763 13.0266C28.3443 11.4171 27.1923 10.1002 26.6163 9.66124C25.8963 10.2465 24.7443 11.4171 24.4563 13.9046V14.6362C23.1603 15.0752 22.0083 15.8068 21.1443 16.5384L20.4243 15.6604C20.8563 14.9288 21.7203 14.0509 22.0083 13.7582C21.8643 13.173 20.7123 12.0024 19.9923 11.5634C18.8403 10.8318 17.8323 10.5392 17.1123 10.5392C17.1123 10.9781 17.1123 11.7097 17.1123 12.734C17.1123 14.6362 17.5443 15.9531 17.8323 17.1237C16.3923 18.1479 15.5283 20.0501 15.2403 20.9281C14.3763 23.4155 14.5203 24.7324 13.6563 26.1957C11.3523 30.0001 9.48031 32.4875 9.48031 34.2434C9.48031 37.0235 9.9123 39.0721 12.0723 39.0721C12.6483 39.0721 13.5123 39.0721 14.2323 38.7794C14.2323 39.511 14.9523 40.0963 15.5283 40.0963C17.4003 40.0963 17.6883 36.1456 19.8483 34.8287C24.4563 31.6096 30.7923 31.317 30.7923 23.7082H32.2323C32.2323 27.5126 31.2243 29.7074 29.9283 31.317C30.3603 38.4868 25.8963 40.8279 23.3043 45.9492C22.2963 47.7051 22.2963 49.6073 22.2963 50.3389ZM14.5203 34.8287C14.5203 35.414 13.6563 35.414 13.6563 35.9993C13.6563 36.5846 13.0803 37.1699 12.5043 37.1699C12.0723 37.1699 11.6403 36.7309 11.6403 35.9993C11.6403 35.2677 12.3603 33.3655 13.3683 33.3655C14.3763 33.3655 14.5203 34.2434 14.5203 34.8287ZM21.1443 19.7575C21.8643 19.7575 21.8643 20.3428 21.8643 20.6354C21.8643 21.2207 20.8563 20.7817 20.8563 21.6597C20.8563 22.245 21.4323 23.1229 20.1363 23.7082C18.8403 24.2935 18.4083 23.7082 18.2643 24.2935C18.2643 24.4398 17.6883 24.8788 17.2563 24.8788C16.8243 24.8788 16.5363 24.4398 16.5363 24.0008C16.8243 21.6597 18.9843 19.7575 21.1443 19.7575Z" fill="white"/>
</svg>
