<svg width="60" height="60" viewBox="0 0 60 60" fill="none" xmlns="http://www.w3.org/2000/svg">
<path d="M25.5283 10.3635H29.3465V7.5166H31.3219V10.4929H34.2186V12.1304H31.3219V16.9348C33.463 17.4524 35.2262 18.6853 35.2262 21.6617C35.2262 22.3087 34.4821 23.9011 34.3561 24.4187C36.3713 22.4776 39.5999 21.3004 42.4967 21.3004C48.2903 21.3004 51.5994 24.7674 51.5994 29.0378C51.5994 35.8963 46.8134 39.1314 44.5463 41.2019C44.2944 41.4607 44.2945 41.7195 44.2945 42.1077C44.2945 43.79 44.4204 47.0251 44.4204 48.578C44.4204 51.2955 37.9074 52.4835 29.9727 52.4835C21.9121 52.4835 15.7044 51.2955 15.7044 48.578C15.7044 46.8957 15.8303 43.79 15.8303 42.1077C15.8303 41.5901 15.8303 41.4607 15.5784 41.2019C12.8076 39.002 8.39941 35.8963 8.39941 28.9084C8.39941 24.638 11.6551 21.3004 17.4487 21.3004C20.3455 21.3004 23.3872 23.1013 25.5283 25.0424C25.3678 24.8987 25.1394 21.9474 25.1394 21.3004C25.1394 18.3241 27.2054 17.5818 29.3465 16.9348V12.1304H25.5283V10.3635Z" fill="#080802"/>
<path d="M29.9998 53.22C21.1557 53.22 14.8173 51.3035 14.8173 48.5023C14.8173 46.8806 14.9647 43.7846 14.9647 42.6052C14.9647 41.7206 14.9647 41.2783 14.6699 40.9835C11.7219 38.0349 7.15234 34.9389 7.15234 28.452C7.15234 23.292 11.4271 19.6063 16.7336 19.6063C20.8609 19.6063 23.3667 21.3755 24.8407 22.8498C24.6933 22.4075 24.3985 21.6703 24.3985 20.9332C24.3985 18.2795 25.8726 15.9206 28.5258 15.4783V12.6772H25.283V9.7286H28.5258V6.78003H31.4739V9.87603H34.5693V12.8246H31.4739V15.4783C34.1271 16.068 35.6012 18.4269 35.6012 20.9332C35.6012 21.6703 35.4538 22.4075 35.1589 22.8498C36.633 21.6703 39.2862 19.7538 43.2661 19.7538C48.5726 19.7538 52.8473 23.5869 52.8473 28.5995C52.8473 35.3812 48.4252 38.4772 45.3297 41.2783C44.8875 41.7206 45.0349 42.1629 45.0349 42.9C45.0349 44.2269 45.1823 47.3229 45.1823 48.9446C45.3297 51.0086 39.8758 53.22 29.9998 53.22ZM14.9647 38.9195C17.4706 37.2977 23.5141 35.5286 29.1154 35.3812C28.6732 27.5675 23.5141 22.26 16.7336 22.26C12.1641 22.26 9.51078 25.356 9.51078 29.0417C9.51078 33.3172 12.4589 36.4132 14.9647 38.9195ZM42.9713 41.5732C43.1187 40.9835 43.4135 40.5412 43.7083 40.2463C41.2025 38.9195 35.3063 37.5926 29.9998 37.5926C24.6933 37.5926 18.7972 38.9195 16.2914 40.2463C16.5862 40.5412 16.881 40.9835 17.0284 41.4257C19.6816 40.0989 23.9563 39.2143 29.9998 39.2143C36.1908 39.2143 40.4655 40.2463 42.9713 41.5732ZM42.8239 45.2589C42.8239 44.6692 42.8239 44.0795 42.8239 43.6372C40.4655 42.4577 35.0115 41.5732 30.1472 41.5732C25.1355 41.5732 19.829 42.4577 17.4706 43.6372C17.4706 44.2269 17.4706 44.6692 17.3232 45.2589C19.6816 44.0795 24.3985 43.3423 30.1472 43.3423C36.0434 43.3423 40.1706 44.2269 42.8239 45.2589ZM17.7654 48.9446C19.6816 50.2715 25.283 50.8612 29.9998 50.8612C34.4219 50.8612 39.8758 50.2715 41.9395 49.092C42.3817 48.7972 42.6765 48.5023 42.6765 48.06C42.6765 47.4703 41.6447 47.028 40.9077 46.8806C38.2544 46.1435 33.5375 45.5537 29.9998 45.5537C25.4304 45.5537 18.9446 46.2909 17.4706 47.4703C17.3232 47.6177 17.1758 47.9126 17.1758 48.06C17.1758 48.5023 17.4706 48.6498 17.7654 48.9446ZM33.3901 21.228C33.3901 19.4589 32.3583 17.6898 29.9998 17.6898C27.6414 17.6898 26.6096 19.4589 26.6096 21.228C26.6096 23.4395 28.0836 24.7663 29.9998 29.6315C31.9161 24.7663 33.3901 23.4395 33.3901 21.228ZM31.0317 35.3812C36.7804 35.5286 42.6765 37.2977 45.0349 38.9195C47.5408 36.4132 50.4889 33.4646 50.4889 28.8943C50.4889 25.5035 47.8356 22.1126 43.2661 22.1126C36.633 22.26 31.4739 27.5675 31.0317 35.3812Z" fill="white"/>
</svg>
