<svg width="60" height="60" viewBox="0 0 60 60" fill="none" xmlns="http://www.w3.org/2000/svg">
<path d="M26.36 18.8959C26.6571 18.7438 26.8057 18.4396 26.36 18.1353C25.32 17.0706 24.5771 15.7015 24.5771 14.3325C24.5771 11.2903 27.4 8.40015 30.3714 8.40015C33.1942 8.40015 35.5714 11.2903 35.5714 13.7241C35.5714 15.5494 34.5314 17.0706 33.0457 18.1353C32.7485 18.4396 32.8971 18.5917 33.3428 18.7438C36.1657 19.8086 38.84 21.9382 38.84 25.5889C38.84 28.7832 37.5028 30.9128 35.4228 32.1297C35.1257 32.2818 35.1257 32.7382 35.4228 32.8903C40.92 35.7804 44.04 41.4086 44.04 47.0368C44.04 49.3184 43.7428 50.6875 43.1485 51.6001H16.8514C16.2571 50.5353 15.96 49.1663 15.96 47.0368C15.96 41.7128 18.7828 35.7804 24.28 33.0424C24.5771 32.8903 24.7257 32.4339 24.1314 32.1297C22.4971 30.9128 21.3085 28.9353 21.3085 26.3494C21.3085 22.3945 23.8342 20.2649 26.36 18.8959Z" fill="#080802"/>
<path d="M25.6799 18.3515C24.2913 17.2715 23.8285 15.8829 23.8285 14.3401C23.8285 10.6372 26.9142 7.86011 30.3085 7.86011C33.7028 7.86011 36.3256 10.483 36.3256 13.8772C36.3256 15.5744 35.5542 17.2715 34.1656 18.3515C37.4056 19.5858 39.8742 22.2087 39.8742 26.0658C39.8742 28.9972 38.6399 31.0029 36.4799 32.5458C42.4971 35.1687 45.2742 41.0315 45.2742 46.2772C45.2742 48.9001 44.8113 50.5972 43.7313 52.1401H16.1142C15.0342 50.2887 14.7256 48.9001 14.7256 46.2772C14.7256 41.0315 17.6571 34.7058 23.3656 32.5458C21.3599 31.0029 20.1256 28.9972 20.1256 26.5287C20.1256 22.5172 22.2856 19.7401 25.6799 18.3515ZM26.4513 32.5458V33.1629C20.7428 35.3229 17.3485 41.1858 17.3485 46.2772C17.3485 47.6658 17.6571 48.7458 17.9656 49.6715H42.0342C42.3428 48.9001 42.6513 47.8201 42.6513 46.2772C42.6513 40.2601 38.3313 34.5515 33.0856 33.1629V32.5458C36.3256 31.0029 37.4056 28.5344 37.4056 26.0658C37.4056 22.6715 35.3999 19.8944 31.3885 18.8144V18.3515C33.0856 17.5801 34.1656 16.0372 34.1656 14.1858C34.1656 11.5629 32.4685 10.0201 30.3085 10.0201C28.3028 10.0201 25.9885 11.4087 25.9885 14.4944C25.9885 15.8829 26.7599 17.4258 27.9942 18.3515V18.9687C24.5999 20.3572 22.4399 22.9801 22.4399 26.5287C22.5942 28.9972 23.9828 31.1572 26.4513 32.5458Z" fill="white"/>
</svg>
