<svg width="60" height="60" viewBox="0 0 60 60" fill="none" xmlns="http://www.w3.org/2000/svg">
<path d="M10.3028 14.7312C11.6699 14.7312 12.4673 16.2208 12.4673 17.3381C12.4673 18.207 11.8459 19.076 11.1003 19.5725C12.7158 22.5519 15.2738 26.8967 18.1321 31.2415C18.3807 31.1174 18.6292 31.1174 18.8778 30.9932C18.7535 25.2829 18.6292 19.8208 18.6292 15.7243C17.3865 15.6001 16.3923 14.3588 16.3923 13.3656C16.3923 11.876 17.8836 10.5105 19.3748 10.5105C20.7419 10.5105 21.9846 12.0001 21.9846 13.1174C21.9846 13.9863 21.3632 14.8553 20.4933 15.3519C21.4875 19.3243 23.7244 25.407 25.5885 29.6277C25.8371 29.6277 26.2099 29.6277 26.4585 29.5036C26.707 24.1656 28.1983 17.5863 28.6954 13.4898C27.8255 13.1174 27.0798 12.1243 27.0798 11.2553C27.0798 9.76567 28.5711 8.40015 30.0624 8.40015C31.4294 8.40015 32.6722 9.88981 32.6722 11.007C32.6722 12.1243 31.8022 13.1174 30.8081 13.4898C31.3051 17.7105 32.7964 24.4139 33.1693 29.6277C33.4178 29.6277 33.7906 29.6277 34.0392 29.6277C36.0276 25.2829 38.1402 19.3243 39.1344 15.3519C38.3888 14.8553 37.8917 14.1105 37.8917 13.3656C37.8917 11.876 39.383 10.5105 40.8742 10.5105C42.2413 10.5105 43.484 12.0001 43.484 13.1174C43.484 14.4829 42.2413 15.6001 40.9985 15.8484C40.9985 19.8208 40.8742 25.407 40.75 31.1174C40.9985 31.1174 41.2471 31.2415 41.4956 31.3656C44.3539 27.0208 46.4666 22.5519 48.0821 19.5725C47.4608 19.076 47.2803 18.2008 47.2803 17.5801C47.2803 16.0905 48.5792 14.8553 50.0705 14.8553C51.4375 14.8553 52.6803 16.345 52.6803 17.4622C52.6803 18.9519 51.0647 20.1932 49.6977 20.1932H49.5734C48.0821 25.2829 47.0879 34.345 46.0938 38.1932C45.7209 39.6829 43.2354 41.6691 43.2354 42.9105C43.2354 44.5243 43.484 46.5105 43.484 48.0001C43.484 50.2346 37.6431 51.6001 29.8139 51.6001C22.4817 51.6001 16.1437 50.2346 16.1437 47.876C16.1437 46.1381 16.3923 44.276 16.3923 42.9105C16.3923 41.6691 14.0311 40.0553 13.6582 38.1932C12.7883 34.345 11.5456 25.2829 10.0543 20.1932H9.93007C8.56306 20.1932 7.32031 18.9519 7.32031 17.7105C7.32031 16.2208 8.8116 14.7312 10.3028 14.7312Z" fill="#080802"/>
<path d="M9.52356 13.2701C11.3982 13.2701 12.9844 15.145 12.9844 16.8757C12.9844 17.741 12.5518 18.6064 11.8308 19.3275C12.9844 21.6351 15.1473 24.9522 17.5987 28.702C17.4545 24.0869 17.3103 19.3275 17.3103 15.8661C16.1567 15.2892 15.2915 13.9912 15.2915 12.9817C15.2915 11.1067 17.1661 9.0876 19.1849 9.0876C21.0595 9.0876 22.6457 10.9625 22.6457 12.6932C22.6457 13.847 22.0689 14.7123 21.2037 15.4335C22.2131 19.039 23.9435 24.0869 25.6738 28.1251C26.3948 23.2215 27.4042 17.1641 27.8368 13.4143C26.8274 12.8374 26.1064 11.6836 26.1064 10.5299C26.1064 8.65493 27.981 6.78003 30.144 6.78003C32.0186 6.78003 33.6048 8.65493 33.6048 10.3856C33.6048 11.6836 32.8838 12.6932 31.8744 13.4143C32.307 17.1641 33.3164 23.3657 34.1816 28.4136C35.9119 24.2311 37.6423 19.039 38.6517 15.5777C37.9307 14.8566 37.4981 14.1354 37.4981 13.2701C37.4981 11.3952 39.3727 9.37605 41.3915 9.37605C43.2661 9.37605 44.8522 11.251 44.8522 12.9817C44.8522 14.4239 43.6987 15.7219 42.4009 16.2988C42.4009 19.7602 42.2567 24.3753 42.1125 28.9905C44.5638 25.0964 46.871 21.6351 48.0246 19.3275C47.592 18.7506 47.3036 18.0295 47.3036 17.4526C47.3036 15.5777 49.1782 13.5585 51.197 13.5585C53.0716 13.5585 54.6577 15.4335 54.6577 17.1641C54.6577 19.039 52.639 20.7697 50.9086 20.9139C49.6108 26.3944 48.313 33.6056 46.871 39.0861C46.4384 40.961 43.8429 42.5475 43.8429 44.4224C43.8429 45.2877 44.1313 47.4511 44.1313 48.6049C44.1313 51.3451 38.3633 53.22 29.7114 53.22C21.3479 53.22 15.2915 51.4893 15.2915 48.6049C15.2915 47.4511 15.5799 45.2877 15.5799 44.4224C15.5799 42.5475 12.9844 40.961 12.4076 38.7977C11.1098 33.4614 9.66775 26.3944 8.51417 20.9139C6.78378 20.6255 5.3418 19.039 5.3418 17.5968C5.6302 15.2892 7.50478 13.2701 9.52356 13.2701ZM9.09096 18.6064C9.81195 18.6064 10.9656 17.8853 10.9656 17.0199C10.9656 16.2988 10.2446 15.5777 9.52356 15.5777C8.65836 15.5777 7.64898 16.443 7.64898 17.4526C7.64898 17.8853 8.36997 18.6064 9.09096 18.6064ZM13.7054 33.7498C14.8589 33.0287 16.0125 32.3076 17.3103 31.8749C15.0031 28.1251 12.5518 24.5195 10.9656 21.7793C11.8308 25.2407 12.8402 30.1443 13.7054 33.7498ZM43.9871 39.8072C44.4196 39.0861 44.8522 38.365 45.1406 37.3554C45.2848 36.9228 45.429 36.3459 45.5732 35.769C41.1031 32.5961 34.7583 31.7307 29.7114 31.7307C24.376 31.7307 17.7429 32.8845 13.9938 35.4805C14.138 35.9132 14.2821 36.2016 14.2821 36.6343C14.5705 37.9323 15.1473 38.7977 15.8683 39.663C18.7523 37.9323 23.7993 36.3459 29.8556 36.3459C36.0561 36.3459 41.2473 38.0766 43.9871 39.8072ZM42.1125 42.4033C42.2567 41.9706 42.5451 41.6821 42.8335 41.2495C40.2379 39.663 34.9025 38.365 29.8556 38.365C24.8086 38.365 19.6175 39.5188 16.8777 41.1052C17.1661 41.5379 17.4545 41.8264 17.5987 42.4033C20.0501 41.1052 24.0877 40.0957 29.8556 40.0957C35.6235 40.0957 39.6611 41.2495 42.1125 42.4033ZM18.8965 14.2797H19.3291C20.0501 14.1354 20.7711 13.5585 20.7711 12.8374C20.7711 12.1163 20.1943 11.3952 19.3291 11.3952C18.4639 11.3952 17.4545 12.2605 17.4545 13.2701C17.4545 13.7028 18.1755 14.2797 18.8965 14.2797ZM29.8556 50.4798C35.7677 50.4798 41.8241 49.4702 41.8241 48.028C41.8241 46.73 35.6235 45.7204 29.8556 45.7204C24.3761 45.7204 17.8871 46.73 17.8871 48.028C17.8871 49.6144 24.3761 50.4798 29.8556 50.4798ZM41.8241 45.7204C41.8241 45.1435 41.8241 44.5666 41.8241 44.1339C39.5169 42.9802 34.4699 42.1148 29.8556 42.1148C25.2412 42.1148 20.1943 42.9802 17.8871 44.1339C17.8871 44.5666 17.8871 45.1435 17.8871 45.5762C20.3385 44.4224 24.2319 43.7013 29.8556 43.7013C35.3351 43.7013 39.3727 44.5666 41.8241 45.7204ZM19.7617 30.8654C21.2037 30.4327 22.6457 30.1443 24.2319 30C22.3573 25.9618 20.4827 20.6255 19.4733 16.5872C19.4733 20.6255 19.7617 25.9618 19.7617 30.8654ZM32.307 29.7116C31.586 24.0869 30.5766 18.1737 29.9998 14.2797C29.423 18.1737 28.4136 24.2311 27.6926 29.7116C28.4136 29.7116 29.1346 29.7116 29.8556 29.7116C30.5766 29.7116 31.4418 29.7116 32.307 29.7116ZM29.7114 11.8279C30.4324 11.8279 31.586 11.1067 31.586 10.2414C31.586 9.52028 31.0092 8.79916 30.144 8.79916C29.2788 8.79916 28.2694 9.6645 28.2694 10.5299C28.2694 11.1067 28.9904 11.8279 29.7114 11.8279ZM40.2379 31.1538C40.2379 25.9618 40.5263 20.6255 40.6705 16.5872C39.5169 20.4813 37.6423 25.9618 35.7677 30C37.2097 30.4327 38.7959 30.7212 40.2379 31.1538ZM40.9589 14.2797H41.2473C41.9683 14.2797 43.1219 13.5585 43.1219 12.6932C43.1219 11.9721 42.5451 11.251 41.6799 11.251C40.8147 11.251 39.8053 12.1163 39.8053 13.1259C39.6611 13.5585 40.2379 14.1354 40.9589 14.2797ZM46.0058 33.8941C46.871 30.1443 47.8804 25.5291 48.7456 21.9235C47.1594 24.6638 44.8522 28.1251 42.5451 31.8749C43.9871 32.5961 44.9964 33.173 46.0058 33.8941ZM50.9086 18.6064C51.6296 18.6064 52.7832 17.8853 52.7832 17.0199C52.7832 16.2988 52.0622 15.5777 51.3412 15.5777C50.476 15.5777 49.4666 16.443 49.4666 17.4526C49.4666 17.8853 50.1876 18.6064 50.9086 18.6064Z" fill="white"/>
</svg>
