<svg width="60" height="60" viewBox="0 0 60 60" fill="none" xmlns="http://www.w3.org/2000/svg">
<path d="M42.2122 19.9606L41.2152 20.7585V36.0504L43.5829 39.1087C44.206 39.9066 44.3306 40.0395 44.3306 40.7044V45.7574L45.0783 45.8904C45.7014 46.0233 46.1999 46.5552 46.1999 47.3531V52.1401H13.7998V47.486C13.7998 46.6882 14.1737 46.1563 14.7968 46.0233L15.5445 45.8904V40.8374C15.5445 40.1725 15.6691 40.0395 16.2922 39.2417L18.6599 36.1833V20.7585L17.6629 19.9606C16.666 19.1628 14.7968 17.8331 14.7968 17.1682V11.4504C14.7968 9.85471 18.5352 9.05687 20.5291 8.65795V12.6471C22.2737 12.3812 24.1429 12.1152 26.0122 12.1152V7.99309C27.0091 7.99309 28.2552 7.86011 29.9998 7.86011C31.7445 7.86011 32.866 7.86011 33.9875 7.99309V12.1152C35.8568 12.1152 37.726 12.3812 39.4706 12.6471V8.65795C41.5891 9.05687 45.2029 9.85471 45.2029 11.4504V17.1682C45.2029 17.8331 43.3337 19.1628 42.2122 19.9606Z" fill="#080802"/>
<path d="M45.2141 40.6013V45.7938H45.5025C46.6561 45.938 47.0888 46.3707 47.0888 47.6688V52.1401H12.9111V47.6688C12.9111 46.3707 13.3438 46.0822 14.209 45.938L14.9301 45.7938V40.6013C14.9301 39.8802 15.2185 39.7359 15.7953 39.159L17.9585 36.5628V21.4181C16.3722 20.2643 13.9206 18.5334 13.9206 17.9565V11.466C13.9206 9.73516 19.2563 8.58129 21.8521 8.29282V11.466C23.0058 11.3217 24.0153 11.1775 25.0247 11.0333V8.00435C26.8995 7.86011 28.63 7.86011 30.2163 7.86011C31.6584 7.86011 33.1005 7.86011 35.2636 8.00435V11.0333C36.1289 11.1775 37.1383 11.3217 38.292 11.466V8.29282C41.753 8.72552 46.2235 9.8794 46.2235 11.466V17.9565C46.2235 18.5334 43.6277 20.2643 42.1856 21.4181V36.2743L44.3488 39.0147C44.9256 39.7359 45.2141 40.0244 45.2141 40.6013ZM44.9256 50.265V48.1015H14.9301V50.265H44.9256ZM19.2564 10.6005C17.9585 10.7448 16.949 11.1775 15.9395 11.466V16.3699C18.5353 15.2161 24.3037 14.7834 29.9278 14.7834C35.4078 14.7834 41.1762 15.2161 43.9162 16.3699V11.6102C42.9067 11.1775 41.753 10.889 40.4551 10.6005V13.4852C37.7152 13.0525 35.552 12.7641 32.6678 12.7641V9.8794C31.8026 9.73516 30.9373 9.73516 29.9278 9.73516C28.9184 9.73516 28.0531 9.73516 27.0437 9.8794V12.7641C24.1595 12.9083 21.9963 13.0525 19.2564 13.4852V10.6005ZM16.3722 17.9565C16.949 18.5334 17.9585 19.2546 18.9679 19.8316L19.689 20.2643C22.1405 19.8316 25.7458 19.5431 30.0721 19.5431C34.3983 19.5431 37.7152 19.9758 40.1667 20.4085L41.032 19.8316C42.1857 19.1104 43.0509 18.5334 43.6277 17.9565C39.7341 16.9469 34.9752 16.5142 30.0721 16.5142C25.0247 16.5142 19.9774 16.9469 16.3722 17.9565ZM43.0509 46.2265V41.8994H17.0932V46.2265H43.0509ZM42.4741 40.0244L41.1762 38.4378H18.8237L17.5258 40.0244H42.4741ZM20.1216 21.9951V36.707H39.8783V22.1393C37.2825 21.8508 34.1099 21.5624 29.9278 21.5624C25.89 21.4181 22.5732 21.7066 20.1216 21.9951Z" fill="white"/>
</svg>
