<svg width="60" height="60" viewBox="0 0 60 60" fill="none" xmlns="http://www.w3.org/2000/svg">
<path d="M30.496 7.07996C32.295 7.07996 33.7085 8.86378 33.7085 10.2654C33.7085 11.7944 32.552 12.9411 31.1385 13.4508C31.9095 14.4701 33.7085 15.2346 35.636 16.3814C40.0049 18.8022 43.6028 21.478 43.6028 26.0649C43.6028 30.1423 42.1894 31.7987 40.6474 33.2002C40.0049 33.8373 40.3904 37.7872 40.3904 40.8452C40.3904 42.5016 37.1779 43.3935 33.58 43.7757C33.9655 44.5402 34.7365 45.1773 36.2784 45.1773C38.0774 45.1773 41.2899 45.0499 44.5024 45.0499C49.8993 45.0499 52.7263 47.9805 52.7263 47.9805L49.7708 52.44C49.7708 52.44 46.4298 49.7643 38.3344 49.7643C33.8369 49.7643 30.6245 47.7256 30.1105 46.0692C29.725 47.7256 27.155 49.7643 22.0151 49.7643C14.6907 49.7643 10.3217 52.44 10.3217 52.44L7.36621 47.9805C7.36621 47.9805 10.1932 45.0499 15.2046 45.0499C18.9311 45.0499 22.0151 45.1773 23.9426 45.1773C25.4846 45.1773 26.2556 44.4128 26.6411 43.7757C22.9146 43.3935 19.8306 42.5016 19.8306 40.8452C19.8306 38.2969 20.2161 34.0921 19.4451 33.3276C18.2886 32.1809 16.4896 30.5245 16.4896 26.1924C16.4896 20.4587 21.7581 18.0378 25.0991 15.9991C26.5125 15.2346 28.0545 14.4701 28.8255 13.5782C27.5405 13.0685 26.5125 11.9218 26.5125 10.6476C26.7695 8.9912 28.5685 7.07996 30.496 7.07996Z" fill="white"/>
<path d="M30.4097 6C32.5892 6 34.6233 8.0345 34.6233 9.92367C34.6233 11.3769 33.6062 12.6848 32.2986 13.4114C32.7345 14.138 34.1874 15.0099 35.4951 15.7365C39.4181 17.9163 44.0675 20.3868 44.0675 26.345C44.0675 30.9952 42.0334 32.4484 41.0163 33.611C40.4351 34.3376 40.7257 38.8426 40.7257 41.0224C40.7257 42.4756 38.1104 43.6382 34.3327 44.2194C34.9139 44.6554 35.6404 44.6554 36.5121 44.6554C38.401 44.6554 40.2898 43.3475 44.0675 43.4928C50.0247 43.4928 53.0759 46.5446 54.093 47.4165L50.0247 53.52C48.8623 52.7934 44.794 50.4683 39.4181 50.4683C34.6233 50.4683 31.1362 49.7416 29.9738 47.9978C28.8115 49.7416 25.3244 50.4683 20.5296 50.4683C15.2989 50.4683 11.2307 52.7934 10.0683 53.52L6 47.4165C7.01707 46.5446 10.0683 43.4928 16.0254 43.4928C19.8031 43.4928 21.692 44.6554 23.4355 44.6554C24.3073 44.6554 25.0338 44.6554 25.6149 44.2194C21.5467 43.7835 19.3672 42.4756 19.3672 41.0224C19.3672 38.8426 19.8031 34.3376 19.0766 33.611C17.9143 32.4484 16.0254 30.9952 16.0254 26.345C16.0254 20.3868 20.6749 18.0617 24.5979 15.7365C25.9055 15.0099 27.6491 13.9927 27.7944 13.4114C26.632 12.6848 25.9055 11.5222 25.9055 10.2143C25.7602 8.0345 28.085 6 30.4097 6ZM38.9822 47.9978C43.9222 47.9978 47.4093 49.451 49.1529 50.1776L50.7511 47.5618C49.5888 46.6899 47.1188 45.382 43.9222 45.382C40.5804 45.382 38.401 46.1086 36.5121 46.1086C34.0421 46.1086 32.5892 45.382 31.8627 44.2194C31.1362 44.2194 30.555 44.2194 29.8285 44.2194C29.102 44.2194 28.5209 44.2194 27.9397 44.2194C27.2132 45.382 25.6149 46.1086 22.9996 46.1086C21.2561 46.1086 19.2219 45.382 15.7348 45.382C12.393 45.382 10.0683 46.6899 8.76061 47.5618L10.5042 50.1776C12.1024 49.3057 15.5895 47.9978 20.5296 47.9978C24.7432 47.9978 28.2303 47.5618 29.5379 45.818H29.9738C31.4268 47.7072 34.478 47.9978 38.9822 47.9978ZM20.9655 34.4829C22.9996 33.3204 26.3414 32.7391 29.8285 32.7391C33.4609 32.7391 36.5121 33.4657 38.6916 34.4829C38.6916 33.611 38.9822 32.7391 39.1275 32.4484C39.9992 31.2859 41.5975 29.978 41.5975 26.345C41.5975 21.404 36.8027 18.9336 34.0421 17.1897C32.5892 16.1725 29.9738 14.7193 29.8285 14.138C29.6832 14.7193 27.2132 16.1725 25.6149 17.1897C22.8543 18.9336 18.0596 21.2587 18.0596 26.345C18.0596 29.978 19.6578 31.4312 20.5296 32.4484C20.8202 32.7391 20.9655 33.4657 20.9655 34.4829ZM21.1108 36.3721C21.1108 37.0987 21.1108 37.9706 21.1108 38.6972C22.5637 37.68 25.7602 36.9534 29.8285 36.9534C33.8968 36.9534 36.948 37.68 38.5463 38.5519C38.5463 37.8253 38.5463 37.0987 38.5463 36.3721C36.0762 35.2095 33.3156 34.9189 29.8285 34.9189C26.1961 34.9189 23.4355 35.3549 21.1108 36.3721ZM29.9738 42.6209C32.2986 42.6209 38.6916 42.3303 38.6916 40.8771C38.6916 39.7145 34.1874 39.1332 29.9738 39.1332C26.0508 39.1332 21.2561 39.8598 21.2561 40.8771C21.1108 42.3303 26.9226 42.6209 29.9738 42.6209ZM28.5209 25.7637H25.0338V23.1479H28.5209V19.8055H31.2815V23.1479H34.7686V25.7637H31.2815V29.2514H28.5209V25.7637ZM29.9738 11.9582C30.9909 11.9582 32.1533 11.0862 32.1533 9.92367C32.1533 9.19706 31.4268 8.0345 30.4097 8.0345C29.2474 8.0345 28.2303 9.19706 28.2303 10.2143C28.2303 10.9409 29.1021 11.9582 29.9738 11.9582Z" fill="#181818"/>
</svg>
