<svg width="60" height="60" viewBox="0 0 60 60" fill="none" xmlns="http://www.w3.org/2000/svg">
<path fill-rule="evenodd" clip-rule="evenodd" d="M21.8115 52.36H50.5087C50.8172 50.9265 51.2801 48.2187 51.2801 44.396C51.2801 27.5122 41.0972 14.4512 29.6801 12.6991L28.9087 12.5399L28.7544 11.7435C28.2915 9.99133 27.0572 8.5578 26.4401 8.07996C25.6687 8.71708 24.4344 9.99133 24.1258 12.6991V13.4955C22.7372 13.9734 21.5029 14.7698 20.5772 15.5662L20.2687 15.3487C20.7315 14.5523 22.3515 13.7986 22.6601 13.48C22.5058 12.8429 20.1144 10.6285 19.3429 10.1506C18.1086 9.35421 17.0286 9.03564 16.2572 9.03564V11.4249C16.2572 13.4955 16.7201 14.9291 17.0286 16.2033C15.4858 17.3183 14.5601 19.3889 14.2515 20.3446C13.3258 23.0524 13.4801 24.4859 12.5544 26.0787C10.0858 30.22 8.08008 32.9278 8.08008 34.8391C8.08008 37.8655 8.54293 40.0954 10.8572 40.0954C11.4744 40.0954 12.4001 40.0954 13.1715 39.7768C13.1715 40.5732 13.9429 41.2104 14.5601 41.2104C16.5658 41.2104 16.8744 36.9098 19.1886 35.4763C24.1258 31.9721 30.9144 31.6535 30.9144 23.3709H31.3001C31.3001 27.5122 30.5287 29.0079 29.1401 30.76C29.6029 38.5647 24.5887 41.3852 21.8115 46.96C20.7315 48.8714 21.8115 51.5636 21.8115 52.36Z" fill="white"/>
<path d="M51.784 52.36H18.664C18.52 50.3115 18.52 47.824 20.248 44.6049C22.408 40.5079 27.304 38.313 27.592 32.4601C25.864 33.6307 23.992 34.3623 22.264 35.3866C19.24 37.1425 19.24 41.6785 15.352 42.1174C13.912 42.2637 13.048 41.6785 12.616 40.9468C12.328 40.9468 12.184 40.9468 11.896 40.9468C8.872 40.9468 7 38.6057 7 33.777C7 31.7285 9.01599 28.9484 11.752 24.5587C12.616 23.2418 12.184 21.9249 13.192 19.5837C13.624 18.4132 14.488 17.3889 15.64 16.072C15.496 15.3404 15.208 14.3161 15.208 12.8529C15.208 11.2434 15.208 9.48748 15.928 7.87794C15.928 7.87794 18.808 7.73161 21.112 9.63381C21.832 10.2191 22.408 10.8044 22.84 11.2434C23.992 8.90219 26.008 7.29265 26.872 7C27.736 7.58529 29.896 9.48748 30.76 12.1213C42.424 14.3161 52.36 27.0462 52.36 43.4343C52.36 48.4093 52.072 51.3357 51.784 52.36ZM21.976 50.0188H48.76C49.048 48.7019 49.48 46.2145 49.48 42.7027C49.48 27.1925 39.976 15.1941 29.32 13.5845L28.6 13.4382L28.456 12.7066C28.024 11.097 26.872 9.78013 26.296 9.34116C25.576 9.92645 24.424 11.097 24.136 13.5845V14.3161C22.84 14.7551 21.688 15.4867 20.824 16.2183L20.104 15.3404C20.536 14.6088 21.4 13.7308 21.688 13.4382C21.544 12.8529 20.392 11.6823 19.672 11.2434C18.52 10.5117 17.512 10.2191 16.792 10.2191C16.792 10.6581 16.792 11.3897 16.792 12.4139C16.792 14.3161 17.224 15.633 17.512 16.8036C16.072 17.8279 15.208 19.7301 14.92 20.608C14.056 23.0955 14.2 24.4124 13.336 25.8756C11.032 29.68 9.16 32.1675 9.16 33.9234C9.16 36.7035 9.59199 38.752 11.752 38.752C12.328 38.752 13.192 38.752 13.912 38.4594C13.912 39.191 14.632 39.7763 15.208 39.7763C17.08 39.7763 17.368 35.8256 19.528 34.5086C24.136 31.2896 30.472 30.9969 30.472 23.3881H31.912C31.912 27.1925 30.904 29.3874 29.608 30.9969C30.04 38.1667 25.576 40.5079 22.984 45.6292C21.976 47.385 21.976 49.2872 21.976 50.0188ZM14.2 34.5086C14.2 35.0939 13.336 35.0939 13.336 35.6792C13.336 36.2645 12.76 36.8498 12.184 36.8498C11.752 36.8498 11.32 36.4108 11.32 35.6792C11.32 34.9476 12.04 33.0454 13.048 33.0454C14.056 33.0454 14.2 33.9234 14.2 34.5086ZM20.824 19.4374C21.544 19.4374 21.544 20.0227 21.544 20.3154C21.544 20.9006 20.536 20.4617 20.536 21.3396C20.536 21.9249 21.112 22.8028 19.816 23.3881C18.52 23.9734 18.088 23.3881 17.944 23.9734C17.944 24.1197 17.368 24.5587 16.936 24.5587C16.504 24.5587 16.216 24.1197 16.216 23.6808C16.504 21.3396 18.664 19.4374 20.824 19.4374Z" fill="#181818"/>
</svg>
