<svg width="60" height="60" viewBox="0 0 60 60" fill="none" xmlns="http://www.w3.org/2000/svg">
<path d="M25.2459 9.91232H29.1349V7H31.1468V10.0447H34.0972V11.7198H31.1468V16.6346C33.3275 17.1641 35.1235 18.4253 35.1235 21.47C35.1235 22.1319 34.3655 23.7609 34.2372 24.2904C36.2897 22.3048 39.5782 21.1005 42.5286 21.1005C48.4295 21.1005 51.7998 24.6471 51.7998 29.0156C51.7998 36.0317 46.9252 39.3411 44.6162 41.4592C44.3596 41.7239 44.3596 41.9887 44.3596 42.3858C44.3596 44.1067 44.4879 47.4162 44.4879 49.0047C44.4879 51.7847 37.8543 53 29.7727 53C21.5628 53 15.2401 51.7847 15.2401 49.0047C15.2401 47.2838 15.3684 44.1067 15.3684 42.3858C15.3684 41.8563 15.3684 41.7239 15.1118 41.4592C12.2896 39.2087 7.7998 36.0317 7.7998 28.8832C7.7998 24.5147 11.1159 21.1005 17.0168 21.1005C19.9672 21.1005 23.0652 22.9427 25.2459 24.9284C25.0825 24.7814 24.8498 21.7624 24.8498 21.1005C24.8498 18.0558 26.9541 17.2964 29.1349 16.6346V11.7198H25.2459V9.91232Z" fill="white"/>
<path fill-rule="evenodd" clip-rule="evenodd" d="M13.9951 49.5191C13.9951 52.4409 20.6064 54.44 29.8314 54.44C40.1327 54.44 45.8215 52.1333 45.6678 49.9804C45.6678 49.0923 45.6254 47.7801 45.5851 46.5338C45.5487 45.4064 45.514 44.3329 45.514 43.6756C45.514 43.5104 45.5069 43.3595 45.5004 43.2197C45.4764 42.7085 45.4593 42.3463 45.8215 41.984C46.1539 41.6833 46.5008 41.3793 46.8559 41.0682C49.9509 38.3567 53.6628 35.1048 53.6628 28.7591C53.6628 23.5307 49.2041 19.5324 43.669 19.5324C39.5177 19.5324 36.7502 21.5316 35.2127 22.7618C35.5202 22.3004 35.674 21.5316 35.674 20.7627C35.674 18.1484 34.1364 15.688 31.3689 15.0729V12.3049H34.5977V9.22933H31.3689V6H28.2939V9.07556H24.9114V12.1511H28.2939V15.0729C25.5264 15.5342 23.9889 17.9947 23.9889 20.7627C23.9889 21.4295 24.2201 22.0963 24.3818 22.5625C24.4066 22.6338 24.4297 22.7005 24.4501 22.7618C22.9126 21.224 20.2989 19.3787 15.9938 19.3787C10.4588 19.3787 6 23.2231 6 28.6053C6 34.3486 9.43409 37.5436 12.353 40.2593C12.8729 40.743 13.3764 41.2115 13.8413 41.6764C14.1488 41.984 14.1488 42.4453 14.1488 43.368C14.1488 43.9342 14.1162 44.924 14.0811 45.9924C14.0398 47.2452 13.9951 48.6061 13.9951 49.5191ZM28.9089 35.8329C23.0664 35.9867 16.7626 37.832 14.1488 39.5236C11.535 36.9093 8.46002 33.68 8.46002 29.2204C8.46002 25.376 11.2275 22.1467 15.9938 22.1467C23.0664 22.1467 28.4477 27.6827 28.9089 35.8329ZM44.1303 40.9076C43.8228 41.2151 43.5153 41.6764 43.3615 42.2916C40.7477 40.9076 36.289 39.8311 29.8314 39.8311C23.5276 39.8311 19.0688 40.7538 16.3013 42.1378C16.1476 41.6764 15.8401 41.2151 15.5326 40.9076C18.1463 39.5236 24.2964 38.1396 29.8314 38.1396C35.3665 38.1396 41.5165 39.5236 44.1303 40.9076ZM43.2078 44.4444V46.136C40.4402 45.0596 36.1352 44.1369 29.9852 44.1369C23.9889 44.1369 19.0688 44.9058 16.6088 46.136C16.7626 45.5209 16.7626 45.0596 16.7626 44.4444C19.2226 43.2142 24.7576 42.2916 29.9852 42.2916C35.059 42.2916 40.7477 43.2142 43.2078 44.4444ZM29.8314 51.9796C24.9114 51.9796 19.0688 51.3644 17.0701 49.9804C17.0059 49.9163 16.9417 49.8588 16.8803 49.8038C16.6476 49.5953 16.4551 49.4228 16.4551 49.0578C16.4551 48.904 16.6088 48.5964 16.7626 48.4427C18.3001 47.2124 25.0651 46.4436 29.8314 46.4436C33.5214 46.4436 38.4415 47.0587 41.209 47.8276C41.9778 47.9813 43.054 48.4427 43.054 49.0578C43.054 49.5191 42.7465 49.8267 42.2853 50.1342C40.1327 51.3644 34.444 51.9796 29.8314 51.9796ZM29.8314 17.3796C32.2914 17.3796 33.3677 19.2249 33.3677 21.0702C33.3677 22.4212 32.8403 23.4557 32.0017 25.1006C31.4085 26.2641 30.6595 27.7331 29.8314 29.8356C29.0033 27.7331 28.2544 26.2641 27.6612 25.1006C26.8226 23.4557 26.2951 22.4212 26.2951 21.0702C26.2951 19.2249 27.3714 17.3796 29.8314 17.3796ZM45.514 39.5236C43.054 37.832 36.904 35.9867 30.9077 35.8329C31.3689 27.6827 36.7502 22.1467 43.669 21.9929C48.4353 21.9929 51.2028 25.5298 51.2028 29.0667C51.2028 33.8338 48.1278 36.9093 45.514 39.5236ZM29.2002 8H30.4752V10.175H33.1V11.45H30.4752V14H29.2002V11.45H26.5V10.175H29.2002V8Z" fill="#181818"/>
</svg>
