<svg width="60" height="60" viewBox="0 0 60 60" fill="none" xmlns="http://www.w3.org/2000/svg">
<path d="M26.4801 19.5758C26.7772 19.4237 26.9258 19.1194 26.4801 18.8152C25.4401 17.7504 24.6972 16.3814 24.6972 15.0124C24.6972 11.9701 27.5201 9.07996 30.4915 9.07996C33.3144 9.07996 35.6915 11.9701 35.6915 14.4039C35.6915 16.2293 34.6515 17.7504 33.1658 18.8152C32.8687 19.1194 33.0172 19.2716 33.4629 19.4237C36.2858 20.4885 38.9601 22.618 38.9601 26.2687C38.9601 29.4631 37.6229 31.5927 35.5429 32.8096C35.2458 32.9617 35.2458 33.418 35.5429 33.5701C41.0401 36.4603 44.1601 42.0884 44.1601 47.7166C44.1601 49.9983 43.8629 51.3673 43.2687 52.28H16.9715C16.3772 51.2152 16.0801 49.8462 16.0801 47.7166C16.0801 42.3927 18.9029 36.4603 24.4001 33.7223C24.6972 33.5701 24.8458 33.1138 24.2515 32.8096C22.6172 31.5927 21.4286 29.6152 21.4286 27.0293C21.4286 23.0744 23.9544 20.9448 26.4801 19.5758Z" fill="white"/>
<path d="M25.9543 18.4914C24.5657 17.4114 24.1029 16.0229 24.1029 14.48C24.1029 10.7771 27.1886 8 30.5829 8C33.9771 8 36.6 10.6229 36.6 14.0171C36.6 15.7143 35.8286 17.4114 34.44 18.4914C37.68 19.7257 40.1486 22.3486 40.1486 26.2057C40.1486 29.1371 38.9143 31.1429 36.7543 32.6857C42.7714 35.3086 45.5486 41.1714 45.5486 46.4171C45.5486 49.04 45.0857 50.7371 44.0057 52.28H16.3886C15.3086 50.4286 15 49.04 15 46.4171C15 41.1714 17.9314 34.8457 23.64 32.6857C21.6343 31.1429 20.4 29.1371 20.4 26.6686C20.4 22.6571 22.56 19.88 25.9543 18.4914ZM26.7257 32.6857V33.3029C21.0171 35.4629 17.6229 41.3257 17.6229 46.4171C17.6229 47.8057 17.9314 48.8857 18.24 49.8114H42.3086C42.6171 49.04 42.9257 47.96 42.9257 46.4171C42.9257 40.4 38.6057 34.6914 33.36 33.3029V32.6857C36.6 31.1429 37.68 28.6743 37.68 26.2057C37.68 22.8114 35.6743 20.0343 31.6629 18.9543V18.4914C33.36 17.72 34.44 16.1771 34.44 14.3257C34.44 11.7029 32.7429 10.16 30.5829 10.16C28.5771 10.16 26.2629 11.5486 26.2629 14.6343C26.2629 16.0229 27.0343 17.5657 28.2686 18.4914V19.1086C24.8743 20.4971 22.7143 23.12 22.7143 26.6686C22.8686 29.1371 24.2571 31.2971 26.7257 32.6857Z" fill="#181818"/>
</svg>
