<svg width="60" height="60" viewBox="0 0 60 60" fill="none" xmlns="http://www.w3.org/2000/svg">
<path d="M9.30243 13.7302C10.7283 13.7302 11.5601 15.284 11.5601 16.4494C11.5601 17.3558 10.912 18.2621 10.1342 18.7801C11.8193 21.8877 14.4875 26.4196 17.4689 30.9516C17.7281 30.8221 17.9874 30.8221 18.2466 30.6926C18.117 24.7363 17.9874 19.039 17.9874 14.7661C16.6911 14.6366 15.6541 13.3417 15.6541 12.3059C15.6541 10.7521 17.2096 9.32769 18.7651 9.32769C20.191 9.32769 21.4873 10.8816 21.4873 12.0469C21.4873 12.9533 20.8392 13.8597 19.9318 14.3776C20.9688 18.5211 23.3021 24.8658 25.2464 29.2683C25.5057 29.2683 25.8946 29.2683 26.1538 29.1388C26.4131 23.571 27.9686 16.7083 28.4871 12.4354C27.5797 12.0469 26.802 11.011 26.802 10.1046C26.802 8.55079 28.3575 7.12646 29.913 7.12646C31.3389 7.12646 32.6351 8.68027 32.6351 9.84563C32.6351 11.011 31.7277 12.0469 30.6907 12.4354C31.2092 16.8378 32.7647 23.83 33.1536 29.2683C33.4129 29.2683 33.8018 29.2683 34.061 29.2683C36.135 24.7364 38.3387 18.5211 39.3757 14.3776C38.5979 13.8597 38.0794 13.0828 38.0794 12.3059C38.0794 10.7521 39.6349 9.32769 41.1904 9.32769C42.6163 9.32769 43.9126 10.8816 43.9126 12.0469C43.9126 13.4712 42.6163 14.6366 41.3201 14.8956C41.3201 19.039 41.1904 24.8658 41.0608 30.8221C41.3201 30.8221 41.5793 30.9516 41.8386 31.0811C44.82 26.5491 47.0236 21.8877 48.7087 18.7801C48.0606 18.2621 47.8723 17.3493 47.8723 16.7019C47.8723 15.1481 49.2272 13.8597 50.7828 13.8597C52.2086 13.8597 53.5049 15.4135 53.5049 16.5789C53.5049 18.1327 51.8198 19.4275 50.3939 19.4275H50.2642C48.7087 24.7363 47.6717 34.1887 46.6347 38.2027C46.2459 39.7565 43.6533 41.8282 43.6533 43.1231C43.6533 44.8064 43.9126 46.8781 43.9126 48.4319C43.9126 50.7626 37.8202 52.187 29.6537 52.187C22.0058 52.187 15.3949 50.7626 15.3949 48.3025C15.3949 46.4897 15.6541 44.5474 15.6541 43.1231C15.6541 41.8282 13.1912 40.145 12.8024 38.2027C11.895 34.1887 10.5987 24.7363 9.04319 19.4275H8.91356C7.48768 19.4275 6.19141 18.1327 6.19141 16.8378C6.19141 15.284 7.74692 13.7302 9.30243 13.7302Z" fill="white"/>
<path d="M8.30033 12.7696C10.2556 12.7696 11.9101 14.7252 11.9101 16.5304C11.9101 17.433 11.4589 18.3357 10.7069 19.0878C11.9101 21.4948 14.1663 24.9548 16.7232 28.8661C16.5728 24.0522 16.4224 19.0878 16.4224 15.4774C15.2191 14.8757 14.3167 13.5217 14.3167 12.4687C14.3167 10.513 16.272 8.40696 18.3777 8.40696C20.333 8.40696 21.9875 10.3626 21.9875 12.1678C21.9875 13.3713 21.3859 14.2739 20.4834 15.0261C21.5363 18.787 23.3412 24.0522 25.1461 28.2643C25.8982 23.1496 26.951 16.8313 27.4022 12.92C26.3494 12.3183 25.5973 11.1148 25.5973 9.9113C25.5973 7.95565 27.5526 6 29.8088 6C31.7641 6 33.4186 7.95565 33.4186 9.76087C33.4186 11.1148 32.6665 12.1678 31.6137 12.92C32.0649 16.8313 33.1178 23.3 34.0202 28.5652C35.8251 24.2026 37.63 18.787 38.6829 15.1765C37.9308 14.4243 37.4796 13.6722 37.4796 12.7696C37.4796 10.8139 39.4349 8.70783 41.5407 8.70783C43.496 8.70783 45.1505 10.6635 45.1505 12.4687C45.1505 13.973 43.9472 15.327 42.5935 15.9287C42.5935 19.5391 42.4431 24.353 42.2927 29.167C44.8496 25.1052 47.2562 21.4948 48.4595 19.0878C48.0082 18.4861 47.7074 17.7339 47.7074 17.1322C47.7074 15.1765 49.6627 13.0704 51.7684 13.0704C53.7237 13.0704 55.3782 15.0261 55.3782 16.8313C55.3782 18.787 53.2725 20.5922 51.4676 20.7426C50.1139 26.4591 48.7603 33.9809 47.2562 39.6974C46.805 41.653 44.0976 43.3078 44.0976 45.2635C44.0976 46.1661 44.3984 48.4226 44.3984 49.6261C44.3984 52.4843 38.3821 54.44 29.3575 54.44C20.6338 54.44 14.3167 52.6348 14.3167 49.6261C14.3167 48.4226 14.6175 46.1661 14.6175 45.2635C14.6175 43.3078 11.9101 41.653 11.3085 39.3965C9.95482 33.8304 8.45073 26.4591 7.24746 20.7426C5.44256 20.4417 3.93848 18.787 3.93848 17.2826C4.2393 14.8757 6.1946 12.7696 8.30033 12.7696ZM7.8491 18.3357C8.60114 18.3357 9.80441 17.5835 9.80441 16.6809C9.80441 15.9287 9.05237 15.1765 8.30033 15.1765C7.39787 15.1765 6.34501 16.0791 6.34501 17.1322C6.34501 17.5835 7.09706 18.3357 7.8491 18.3357ZM12.6622 34.1313C13.8655 33.3791 15.0687 32.627 16.4224 32.1756C14.0159 28.2643 11.4589 24.5035 9.80441 21.6452C10.7069 25.2556 11.7597 30.3704 12.6622 34.1313ZM44.248 40.4496C44.6992 39.6974 45.1505 38.9452 45.4513 37.8922C45.6017 37.4409 45.7521 36.8391 45.9025 36.2374C41.2398 32.9278 34.6219 32.0252 29.3575 32.0252C23.7924 32.0252 16.8736 33.2287 12.963 35.9365C13.1134 36.3878 13.2638 36.6887 13.2638 37.14C13.5646 38.4939 14.1663 39.3965 14.9183 40.2991C17.9265 38.4939 23.1908 36.8391 29.508 36.8391C35.9755 36.8391 41.3902 38.6443 44.248 40.4496ZM42.2927 43.1574C42.4431 42.7061 42.7439 42.4052 43.0447 41.9539C40.3374 40.2991 34.7723 38.9452 29.508 38.9452C24.2437 38.9452 18.8289 40.1487 15.9712 41.8035C16.272 42.2548 16.5728 42.5556 16.7232 43.1574C19.2802 41.8035 23.4916 40.7504 29.508 40.7504C35.5243 40.7504 39.7358 41.9539 42.2927 43.1574ZM18.0769 13.8226H18.5281C19.2802 13.6722 20.0322 13.0704 20.0322 12.3183C20.0322 11.5661 19.4306 10.8139 18.5281 10.8139C17.6257 10.8139 16.5728 11.7165 16.5728 12.7696C16.5728 13.2209 17.3249 13.8226 18.0769 13.8226ZM29.508 51.5817C35.6747 51.5817 41.9919 50.5287 41.9919 49.0243C41.9919 47.6704 35.5243 46.6174 29.508 46.6174C23.7924 46.6174 17.024 47.6704 17.024 49.0243C17.024 50.6791 23.7924 51.5817 29.508 51.5817ZM41.9919 46.6174C41.9919 46.0156 41.9919 45.4139 41.9919 44.9626C39.5853 43.7591 34.321 42.8565 29.508 42.8565C24.6949 42.8565 19.4306 43.7591 17.024 44.9626C17.024 45.4139 17.024 46.0156 17.024 46.467C19.581 45.2635 23.642 44.5113 29.508 44.5113C35.2235 44.5113 39.4349 45.4139 41.9919 46.6174ZM18.9794 31.1226C20.4834 30.6713 21.9875 30.3704 23.642 30.22C21.6867 26.0078 19.7314 20.4417 18.6785 16.2296C18.6785 20.4417 18.9794 26.0078 18.9794 31.1226ZM32.0649 29.9191C31.3129 24.0522 30.26 17.8843 29.6584 13.8226C29.0567 17.8843 28.0039 24.2026 27.2518 29.9191C28.0039 29.9191 28.7559 29.9191 29.508 29.9191C30.26 29.9191 31.1625 29.9191 32.0649 29.9191ZM29.3575 11.2652C30.1096 11.2652 31.3129 10.513 31.3129 9.61043C31.3129 8.85826 30.7112 8.10609 29.8088 8.10609C28.9063 8.10609 27.8535 9.0087 27.8535 9.9113C27.8535 10.513 28.6055 11.2652 29.3575 11.2652ZM40.3374 31.4235C40.3374 26.0078 40.6382 20.4417 40.7886 16.2296C39.5853 20.2913 37.63 26.0078 35.6747 30.22C37.1788 30.6713 38.8333 30.9722 40.3374 31.4235ZM41.0894 13.8226H41.3902C42.1423 13.8226 43.3456 13.0704 43.3456 12.1678C43.3456 11.4157 42.7439 10.6635 41.8415 10.6635C40.939 10.6635 39.8862 11.5661 39.8862 12.6191C39.7357 13.0704 40.3374 13.6722 41.0894 13.8226ZM46.3537 34.2817C47.2562 30.3704 48.309 25.5565 49.2115 21.7957C47.557 24.6539 45.1505 28.2643 42.7439 32.1756C44.248 32.9278 45.3009 33.5296 46.3537 34.2817ZM51.4676 18.3357C52.2197 18.3357 53.4229 17.5835 53.4229 16.6809C53.4229 15.9287 52.6709 15.1765 51.9189 15.1765C51.0164 15.1765 49.9635 16.0791 49.9635 17.1322C49.9635 17.5835 50.7156 18.3357 51.4676 18.3357Z" fill="#181818"/>
</svg>
