<svg width="60" height="60" viewBox="0 0 60 60" fill="none" xmlns="http://www.w3.org/2000/svg">
<path d="M42.4924 20.1005L41.4955 20.8984V36.1903L43.8632 39.2486C44.4862 40.0465 44.6108 40.1795 44.6108 40.8443V45.8973L45.3585 46.0303C45.9816 46.1632 46.4801 46.6951 46.4801 47.493V52.28H14.0801V47.6259C14.0801 46.8281 14.4539 46.2962 15.077 46.1632L15.8247 46.0303V40.9773C15.8247 40.3124 15.9493 40.1795 16.5724 39.3816L18.9401 36.3232V20.8984L17.9432 20.1005C16.9462 19.3027 15.077 17.973 15.077 17.3081V11.5903C15.077 9.99459 18.8155 9.19676 20.8093 8.79784V12.787C22.5539 12.5211 24.4232 12.2551 26.2924 12.2551V8.13297C27.2893 8.13297 28.5355 8 30.2801 8C32.0247 8 33.1462 8 34.2678 8.13297V12.2551C36.137 12.2551 38.0062 12.5211 39.7509 12.787V8.79784C41.8693 9.19676 45.4832 9.99459 45.4832 11.5903V17.3081C45.4832 17.973 43.6139 19.3027 42.4924 20.1005Z" fill="white"/>
<path d="M45.3029 40.7412V45.9337H45.5913C46.745 46.0779 47.1776 46.5106 47.1776 47.8087V52.28H13V47.8087C13 46.5106 13.4326 46.2221 14.2979 46.0779L15.0189 45.9337V40.7412C15.0189 40.0201 15.3074 39.8758 15.8842 39.2989L18.0473 36.7027V21.558C16.461 20.4042 14.0095 18.6734 14.0095 18.0964V11.6059C14.0095 9.87505 19.3452 8.72117 21.941 8.4327V11.6059C23.0947 11.4616 24.1041 11.3174 25.1136 11.1732V8.14423C26.9883 8 28.7188 8 30.3051 8C31.7472 8 33.1893 8 35.3525 8.14423V11.1732C36.2177 11.3174 37.2272 11.4616 38.3809 11.6059V8.4327C41.8419 8.86541 46.3124 10.0193 46.3124 11.6059V18.0964C46.3124 18.6734 43.7166 20.4042 42.2745 21.558V36.4142L44.4377 39.1547C45.0145 39.8758 45.3029 40.1643 45.3029 40.7412ZM45.0145 50.4049V48.2414H15.0189V50.4049H45.0145ZM19.3452 10.7405C18.0473 10.8847 17.0379 11.3174 16.0284 11.6059V16.5098C18.6242 15.356 24.3925 14.9233 30.0167 14.9233C35.4967 14.9233 41.2651 15.356 44.005 16.5098V11.7501C42.9956 11.3174 41.8419 11.0289 40.544 10.7405V13.6251C37.804 13.1924 35.6409 12.904 32.7567 12.904V10.0193C31.8914 9.87505 31.0262 9.87505 30.0167 9.87505C29.0072 9.87505 28.142 9.87505 27.1325 10.0193V12.904C24.2483 13.0482 22.0852 13.1924 19.3452 13.6251V10.7405ZM16.461 18.0964C17.0379 18.6734 18.0473 19.3945 19.0568 19.9715L19.7778 20.4042C22.2294 19.9715 25.8346 19.683 30.1609 19.683C34.4872 19.683 37.804 20.1157 40.2556 20.5484L41.1208 19.9715C42.2745 19.2503 43.1398 18.6734 43.7166 18.0964C39.823 17.0868 35.0641 16.6541 30.1609 16.6541C25.1136 16.6541 20.0663 17.0868 16.461 18.0964ZM43.1398 46.3664V42.0393H17.1821V46.3664H43.1398ZM42.5629 40.1643L41.2651 38.5777H18.9126L17.6147 40.1643H42.5629ZM20.2105 22.135V36.8469H39.9672V22.2792C37.3714 21.9907 34.1988 21.7023 30.0167 21.7023C25.9788 21.558 22.662 21.8465 20.2105 22.135Z" fill="#181818"/>
</svg>
